<mxfile host="app.diagrams.net" agent="Mozilla/5.0 (X11; Linux x86_64) AppleWebKit/537.36 (KHTML, like Gecko) Chrome/127.0.0.0 Safari/537.36 Edg/127.0.0.0" version="24.7.7">
  <diagram name="Page-1" id="v0MR3eNfGihSb6eTfcJn">
    <mxGraphModel dx="3056" dy="1297" grid="1" gridSize="10" guides="1" tooltips="1" connect="1" arrows="1" fold="1" page="1" pageScale="1" pageWidth="850" pageHeight="1100" math="0" shadow="0">
      <root>
        <mxCell id="0" />
        <mxCell id="1" parent="0" />
        <mxCell id="i7z96Pq1NJeUj6vUrh7O-54" value="us-east-1" style="sketch=0;outlineConnect=0;gradientColor=none;html=1;whiteSpace=wrap;fontSize=12;fontStyle=0;shape=mxgraph.aws4.group;grIcon=mxgraph.aws4.group_region;strokeColor=#879196;fillColor=none;verticalAlign=top;align=left;spacingLeft=30;fontColor=#879196;dashed=1;" vertex="1" parent="1">
          <mxGeometry x="220.5" y="250" width="1389.5" height="530" as="geometry" />
        </mxCell>
        <mxCell id="i7z96Pq1NJeUj6vUrh7O-51" value="" style="rounded=1;arcSize=10;dashed=0;fillColor=none;gradientColor=none;strokeWidth=2;" vertex="1" parent="1">
          <mxGeometry x="199" y="215" width="1490" height="610" as="geometry" />
        </mxCell>
        <mxCell id="i7z96Pq1NJeUj6vUrh7O-29" style="edgeStyle=orthogonalEdgeStyle;rounded=0;orthogonalLoop=1;jettySize=auto;html=1;fillColor=#dae8fc;strokeColor=#6c8ebf;strokeWidth=3;curved=1;" edge="1" parent="1" source="i7z96Pq1NJeUj6vUrh7O-1" target="i7z96Pq1NJeUj6vUrh7O-3">
          <mxGeometry relative="1" as="geometry" />
        </mxCell>
        <mxCell id="i7z96Pq1NJeUj6vUrh7O-1" value="gkg_counts" style="verticalLabelPosition=bottom;aspect=fixed;html=1;shape=mxgraph.salesforce.web;fillColor=#dae8fc;strokeColor=#6c8ebf;" vertex="1" parent="1">
          <mxGeometry x="-1" y="468" width="60" height="47.400000000000006" as="geometry" />
        </mxCell>
        <mxCell id="i7z96Pq1NJeUj6vUrh7O-2" value="events" style="verticalLabelPosition=bottom;aspect=fixed;html=1;shape=mxgraph.salesforce.web;" vertex="1" parent="1">
          <mxGeometry x="9" y="573" width="60" height="47.400000000000006" as="geometry" />
        </mxCell>
        <mxCell id="i7z96Pq1NJeUj6vUrh7O-6" value="&lt;div style=&quot;font-family: &amp;quot;Droid Sans Mono&amp;quot;, &amp;quot;monospace&amp;quot;, monospace; font-size: 14px; line-height: 19px; white-space: pre;&quot;&gt;&lt;span style=&quot;background-color: rgb(255, 255, 255);&quot;&gt;factored-datathon-2024-voyager&lt;/span&gt;&lt;/div&gt;" style="swimlane;whiteSpace=wrap;html=1;" vertex="1" parent="1">
          <mxGeometry x="359" y="334" width="670" height="400" as="geometry" />
        </mxCell>
        <mxCell id="i7z96Pq1NJeUj6vUrh7O-5" value="" style="sketch=0;points=[[0,0,0],[0.25,0,0],[0.5,0,0],[0.75,0,0],[1,0,0],[0,1,0],[0.25,1,0],[0.5,1,0],[0.75,1,0],[1,1,0],[0,0.25,0],[0,0.5,0],[0,0.75,0],[1,0.25,0],[1,0.5,0],[1,0.75,0]];outlineConnect=0;fontColor=#232F3E;fillColor=#7AA116;strokeColor=#ffffff;dashed=0;verticalLabelPosition=bottom;verticalAlign=top;align=center;html=1;fontSize=12;fontStyle=0;aspect=fixed;shape=mxgraph.aws4.resourceIcon;resIcon=mxgraph.aws4.s3;" vertex="1" parent="i7z96Pq1NJeUj6vUrh7O-6">
          <mxGeometry y="24.7" width="78" height="78" as="geometry" />
        </mxCell>
        <mxCell id="i7z96Pq1NJeUj6vUrh7O-7" value="raw" style="swimlane;whiteSpace=wrap;html=1;fillColor=#a0522d;strokeColor=#6D1F00;fontColor=#ffffff;" vertex="1" parent="i7z96Pq1NJeUj6vUrh7O-6">
          <mxGeometry x="42.5" y="120" width="220" height="260" as="geometry" />
        </mxCell>
        <mxCell id="i7z96Pq1NJeUj6vUrh7O-8" value="events" style="swimlane;whiteSpace=wrap;html=1;fillColor=#dae8fc;strokeColor=#6c8ebf;" vertex="1" parent="i7z96Pq1NJeUj6vUrh7O-7">
          <mxGeometry x="20" y="40" width="180" height="100" as="geometry" />
        </mxCell>
        <mxCell id="i7z96Pq1NJeUj6vUrh7O-15" value="events.csv" style="html=1;verticalLabelPosition=bottom;align=center;labelBackgroundColor=#ffffff;verticalAlign=top;strokeWidth=2;strokeColor=#0080F0;shadow=0;dashed=0;shape=mxgraph.ios7.icons.document;" vertex="1" parent="i7z96Pq1NJeUj6vUrh7O-8">
          <mxGeometry x="79.5" y="40" width="21" height="30" as="geometry" />
        </mxCell>
        <mxCell id="i7z96Pq1NJeUj6vUrh7O-9" value="gkg_counts" style="swimlane;whiteSpace=wrap;html=1;startSize=30;fillColor=#d5e8d4;strokeColor=#82b366;" vertex="1" parent="i7z96Pq1NJeUj6vUrh7O-7">
          <mxGeometry x="20" y="150" width="180" height="100" as="geometry" />
        </mxCell>
        <mxCell id="i7z96Pq1NJeUj6vUrh7O-16" value="gkg_counts.csv" style="html=1;verticalLabelPosition=bottom;align=center;labelBackgroundColor=#ffffff;verticalAlign=top;strokeWidth=2;strokeColor=#0080F0;shadow=0;dashed=0;shape=mxgraph.ios7.icons.document;" vertex="1" parent="i7z96Pq1NJeUj6vUrh7O-9">
          <mxGeometry x="79.5" y="34" width="21" height="30" as="geometry" />
        </mxCell>
        <mxCell id="i7z96Pq1NJeUj6vUrh7O-12" value="parquet" style="swimlane;whiteSpace=wrap;html=1;fillColor=#647687;fontColor=#ffffff;strokeColor=#314354;" vertex="1" parent="i7z96Pq1NJeUj6vUrh7O-6">
          <mxGeometry x="430" y="120" width="220" height="260" as="geometry" />
        </mxCell>
        <mxCell id="i7z96Pq1NJeUj6vUrh7O-13" value="events" style="swimlane;whiteSpace=wrap;html=1;fillColor=#dae8fc;strokeColor=#6c8ebf;" vertex="1" parent="i7z96Pq1NJeUj6vUrh7O-12">
          <mxGeometry x="20" y="40" width="180" height="100" as="geometry" />
        </mxCell>
        <mxCell id="i7z96Pq1NJeUj6vUrh7O-18" value="events.snappy.parquet" style="html=1;verticalLabelPosition=bottom;align=center;labelBackgroundColor=#ffffff;verticalAlign=top;strokeWidth=2;strokeColor=#0080F0;shadow=0;dashed=0;shape=mxgraph.ios7.icons.document;" vertex="1" parent="i7z96Pq1NJeUj6vUrh7O-13">
          <mxGeometry x="79.5" y="35" width="21" height="30" as="geometry" />
        </mxCell>
        <mxCell id="i7z96Pq1NJeUj6vUrh7O-14" value="gkg_counts" style="swimlane;whiteSpace=wrap;html=1;fillColor=#d5e8d4;strokeColor=#82b366;" vertex="1" parent="i7z96Pq1NJeUj6vUrh7O-12">
          <mxGeometry x="20" y="150" width="180" height="100" as="geometry" />
        </mxCell>
        <mxCell id="i7z96Pq1NJeUj6vUrh7O-19" value="gkg_counts.snappy.parquet" style="html=1;verticalLabelPosition=bottom;align=center;labelBackgroundColor=#ffffff;verticalAlign=top;strokeWidth=2;strokeColor=#0080F0;shadow=0;dashed=0;shape=mxgraph.ios7.icons.document;" vertex="1" parent="i7z96Pq1NJeUj6vUrh7O-14">
          <mxGeometry x="89.5" y="34" width="21" height="30" as="geometry" />
        </mxCell>
        <mxCell id="i7z96Pq1NJeUj6vUrh7O-40" value="" style="group" vertex="1" connectable="0" parent="i7z96Pq1NJeUj6vUrh7O-6">
          <mxGeometry x="280" y="140" width="108" height="99" as="geometry" />
        </mxCell>
        <mxCell id="i7z96Pq1NJeUj6vUrh7O-10" value="transform_events" style="sketch=0;points=[[0,0,0],[0.25,0,0],[0.5,0,0],[0.75,0,0],[1,0,0],[0,1,0],[0.25,1,0],[0.5,1,0],[0.75,1,0],[1,1,0],[0,0.25,0],[0,0.5,0],[0,0.75,0],[1,0.25,0],[1,0.5,0],[1,0.75,0]];outlineConnect=0;fontColor=#232F3E;fillColor=#8C4FFF;strokeColor=#ffffff;dashed=0;verticalLabelPosition=bottom;verticalAlign=top;align=center;html=1;fontSize=12;fontStyle=0;aspect=fixed;shape=mxgraph.aws4.resourceIcon;resIcon=mxgraph.aws4.glue;" vertex="1" parent="i7z96Pq1NJeUj6vUrh7O-40">
          <mxGeometry x="30" y="21" width="78" height="78" as="geometry" />
        </mxCell>
        <mxCell id="i7z96Pq1NJeUj6vUrh7O-39" value="" style="shape=image;verticalLabelPosition=bottom;labelBackgroundColor=default;verticalAlign=top;aspect=fixed;imageAspect=0;image=https://upload.wikimedia.org/wikipedia/commons/thumb/f/f3/Apache_Spark_logo.svg/1280px-Apache_Spark_logo.svg.png;" vertex="1" parent="i7z96Pq1NJeUj6vUrh7O-40">
          <mxGeometry width="82.82" height="43" as="geometry" />
        </mxCell>
        <mxCell id="i7z96Pq1NJeUj6vUrh7O-41" value="" style="group" vertex="1" connectable="0" parent="i7z96Pq1NJeUj6vUrh7O-6">
          <mxGeometry x="281" y="270" width="108" height="99" as="geometry" />
        </mxCell>
        <mxCell id="i7z96Pq1NJeUj6vUrh7O-47" style="edgeStyle=orthogonalEdgeStyle;rounded=0;orthogonalLoop=1;jettySize=auto;html=1;fillColor=#d5e8d4;strokeColor=#82b366;strokeWidth=3;curved=1;" edge="1" parent="i7z96Pq1NJeUj6vUrh7O-41" source="i7z96Pq1NJeUj6vUrh7O-42">
          <mxGeometry relative="1" as="geometry">
            <mxPoint x="169" y="50" as="targetPoint" />
          </mxGeometry>
        </mxCell>
        <mxCell id="i7z96Pq1NJeUj6vUrh7O-42" value="transform_gkg_counts" style="sketch=0;points=[[0,0,0],[0.25,0,0],[0.5,0,0],[0.75,0,0],[1,0,0],[0,1,0],[0.25,1,0],[0.5,1,0],[0.75,1,0],[1,1,0],[0,0.25,0],[0,0.5,0],[0,0.75,0],[1,0.25,0],[1,0.5,0],[1,0.75,0]];outlineConnect=0;fontColor=#232F3E;fillColor=#8C4FFF;strokeColor=#ffffff;dashed=0;verticalLabelPosition=bottom;verticalAlign=top;align=center;html=1;fontSize=12;fontStyle=0;aspect=fixed;shape=mxgraph.aws4.resourceIcon;resIcon=mxgraph.aws4.glue;" vertex="1" parent="i7z96Pq1NJeUj6vUrh7O-41">
          <mxGeometry x="30" y="21" width="78" height="78" as="geometry" />
        </mxCell>
        <mxCell id="i7z96Pq1NJeUj6vUrh7O-43" value="" style="shape=image;verticalLabelPosition=bottom;labelBackgroundColor=default;verticalAlign=top;aspect=fixed;imageAspect=0;image=https://upload.wikimedia.org/wikipedia/commons/thumb/f/f3/Apache_Spark_logo.svg/1280px-Apache_Spark_logo.svg.png;" vertex="1" parent="i7z96Pq1NJeUj6vUrh7O-41">
          <mxGeometry width="82.82" height="43" as="geometry" />
        </mxCell>
        <mxCell id="i7z96Pq1NJeUj6vUrh7O-44" style="edgeStyle=orthogonalEdgeStyle;rounded=0;orthogonalLoop=1;jettySize=auto;html=1;entryX=0;entryY=0.5;entryDx=0;entryDy=0;entryPerimeter=0;fillColor=#d5e8d4;strokeColor=#82b366;strokeWidth=3;curved=1;" edge="1" parent="i7z96Pq1NJeUj6vUrh7O-6" source="i7z96Pq1NJeUj6vUrh7O-9" target="i7z96Pq1NJeUj6vUrh7O-42">
          <mxGeometry relative="1" as="geometry" />
        </mxCell>
        <mxCell id="i7z96Pq1NJeUj6vUrh7O-45" style="edgeStyle=orthogonalEdgeStyle;rounded=0;orthogonalLoop=1;jettySize=auto;html=1;fillColor=#dae8fc;strokeColor=#6c8ebf;curved=1;strokeWidth=3;" edge="1" parent="i7z96Pq1NJeUj6vUrh7O-6" source="i7z96Pq1NJeUj6vUrh7O-8" target="i7z96Pq1NJeUj6vUrh7O-10">
          <mxGeometry relative="1" as="geometry" />
        </mxCell>
        <mxCell id="i7z96Pq1NJeUj6vUrh7O-46" style="edgeStyle=orthogonalEdgeStyle;rounded=0;orthogonalLoop=1;jettySize=auto;html=1;entryX=0;entryY=0.5;entryDx=0;entryDy=0;fillColor=#dae8fc;strokeColor=#6c8ebf;curved=1;strokeWidth=3;" edge="1" parent="i7z96Pq1NJeUj6vUrh7O-6" source="i7z96Pq1NJeUj6vUrh7O-10" target="i7z96Pq1NJeUj6vUrh7O-13">
          <mxGeometry relative="1" as="geometry" />
        </mxCell>
        <mxCell id="i7z96Pq1NJeUj6vUrh7O-21" value="" style="group" vertex="1" connectable="0" parent="1">
          <mxGeometry x="229" y="482.1500000000001" width="98.17000000000002" height="103.69999999999999" as="geometry" />
        </mxCell>
        <mxCell id="i7z96Pq1NJeUj6vUrh7O-3" value="ingest_data" style="sketch=0;points=[[0,0,0],[0.25,0,0],[0.5,0,0],[0.75,0,0],[1,0,0],[0,1,0],[0.25,1,0],[0.5,1,0],[0.75,1,0],[1,1,0],[0,0.25,0],[0,0.5,0],[0,0.75,0],[1,0.25,0],[1,0.5,0],[1,0.75,0]];outlineConnect=0;fontColor=#232F3E;fillColor=#8C4FFF;strokeColor=#ffffff;dashed=0;verticalLabelPosition=bottom;verticalAlign=top;align=center;html=1;fontSize=12;fontStyle=0;aspect=fixed;shape=mxgraph.aws4.resourceIcon;resIcon=mxgraph.aws4.glue;" vertex="1" parent="i7z96Pq1NJeUj6vUrh7O-21">
          <mxGeometry x="20.170000000000016" y="25.69999999999999" width="78" height="78" as="geometry" />
        </mxCell>
        <mxCell id="i7z96Pq1NJeUj6vUrh7O-20" value="" style="shape=image;verticalLabelPosition=bottom;labelBackgroundColor=default;verticalAlign=top;aspect=fixed;imageAspect=0;image=https://cdn.freebiesupply.com/logos/large/2x/python-5-logo-png-transparent.png;" vertex="1" parent="i7z96Pq1NJeUj6vUrh7O-21">
          <mxGeometry width="40.17" height="40" as="geometry" />
        </mxCell>
        <mxCell id="i7z96Pq1NJeUj6vUrh7O-28" style="edgeStyle=orthogonalEdgeStyle;rounded=0;orthogonalLoop=1;jettySize=auto;html=1;entryX=0;entryY=0.5;entryDx=0;entryDy=0;entryPerimeter=0;fillColor=#d5e8d4;strokeColor=#82b366;strokeWidth=3;curved=1;" edge="1" parent="1" source="i7z96Pq1NJeUj6vUrh7O-2" target="i7z96Pq1NJeUj6vUrh7O-3">
          <mxGeometry relative="1" as="geometry" />
        </mxCell>
        <mxCell id="i7z96Pq1NJeUj6vUrh7O-30" style="edgeStyle=orthogonalEdgeStyle;rounded=0;orthogonalLoop=1;jettySize=auto;html=1;entryX=0;entryY=0.5;entryDx=0;entryDy=0;fillColor=#dae8fc;strokeColor=#6c8ebf;curved=1;strokeWidth=3;" edge="1" parent="1" source="i7z96Pq1NJeUj6vUrh7O-3" target="i7z96Pq1NJeUj6vUrh7O-8">
          <mxGeometry relative="1" as="geometry" />
        </mxCell>
        <mxCell id="i7z96Pq1NJeUj6vUrh7O-31" style="edgeStyle=orthogonalEdgeStyle;rounded=0;orthogonalLoop=1;jettySize=auto;html=1;entryX=0;entryY=0.5;entryDx=0;entryDy=0;fillColor=#d5e8d4;strokeColor=#82b366;strokeWidth=3;curved=1;" edge="1" parent="1" source="i7z96Pq1NJeUj6vUrh7O-3" target="i7z96Pq1NJeUj6vUrh7O-9">
          <mxGeometry relative="1" as="geometry" />
        </mxCell>
        <mxCell id="i7z96Pq1NJeUj6vUrh7O-49" value="Private subnet" style="points=[[0,0],[0.25,0],[0.5,0],[0.75,0],[1,0],[1,0.25],[1,0.5],[1,0.75],[1,1],[0.75,1],[0.5,1],[0.25,1],[0,1],[0,0.75],[0,0.5],[0,0.25]];outlineConnect=0;gradientColor=none;html=1;whiteSpace=wrap;fontSize=12;fontStyle=0;container=1;pointerEvents=0;collapsible=0;recursiveResize=0;shape=mxgraph.aws4.group;grIcon=mxgraph.aws4.group_security_group;grStroke=0;strokeColor=#00A4A6;fillColor=#E6F6F7;verticalAlign=top;align=left;spacingLeft=30;fontColor=#147EBA;dashed=0;" vertex="1" parent="1">
          <mxGeometry x="1164" y="482.15" width="376" height="267.85" as="geometry" />
        </mxCell>
        <mxCell id="i7z96Pq1NJeUj6vUrh7O-50" value="voyager_db" style="sketch=0;points=[[0,0,0],[0.25,0,0],[0.5,0,0],[0.75,0,0],[1,0,0],[0,1,0],[0.25,1,0],[0.5,1,0],[0.75,1,0],[1,1,0],[0,0.25,0],[0,0.5,0],[0,0.75,0],[1,0.25,0],[1,0.5,0],[1,0.75,0]];outlineConnect=0;fontColor=#232F3E;fillColor=#8C4FFF;strokeColor=#ffffff;dashed=0;verticalLabelPosition=bottom;verticalAlign=top;align=center;html=1;fontSize=12;fontStyle=0;aspect=fixed;shape=mxgraph.aws4.resourceIcon;resIcon=mxgraph.aws4.redshift;" vertex="1" parent="i7z96Pq1NJeUj6vUrh7O-49">
          <mxGeometry x="71" y="75" width="78" height="78" as="geometry" />
        </mxCell>
        <mxCell id="i7z96Pq1NJeUj6vUrh7O-53" value="Airflow" style="sketch=0;points=[[0,0,0],[0.25,0,0],[0.5,0,0],[0.75,0,0],[1,0,0],[0,1,0],[0.25,1,0],[0.5,1,0],[0.75,1,0],[1,1,0],[0,0.25,0],[0,0.5,0],[0,0.75,0],[1,0.25,0],[1,0.5,0],[1,0.75,0]];outlineConnect=0;fontColor=#232F3E;fillColor=#E7157B;strokeColor=#ffffff;dashed=0;verticalLabelPosition=bottom;verticalAlign=top;align=center;html=1;fontSize=12;fontStyle=0;aspect=fixed;shape=mxgraph.aws4.resourceIcon;resIcon=mxgraph.aws4.managed_workflows_for_apache_airflow;" vertex="1" parent="i7z96Pq1NJeUj6vUrh7O-49">
          <mxGeometry x="196" y="75.99999999999999" width="78" height="78" as="geometry" />
        </mxCell>
        <mxCell id="i7z96Pq1NJeUj6vUrh7O-48" value="VPC" style="sketch=0;outlineConnect=0;gradientColor=none;html=1;whiteSpace=wrap;fontSize=12;fontStyle=0;shape=mxgraph.aws4.group;grIcon=mxgraph.aws4.group_vpc;strokeColor=#879196;fillColor=none;verticalAlign=top;align=left;spacingLeft=30;fontColor=#879196;dashed=0;" vertex="1" parent="i7z96Pq1NJeUj6vUrh7O-49">
          <mxGeometry x="-64" y="-102.14999999999998" width="440" height="370" as="geometry" />
        </mxCell>
        <mxCell id="i7z96Pq1NJeUj6vUrh7O-52" value="" style="dashed=0;html=1;shape=mxgraph.aws3.cloud;fillColor=#F58536;gradientColor=none;dashed=0;" vertex="1" parent="1">
          <mxGeometry x="959" y="195" width="52" height="36" as="geometry" />
        </mxCell>
        <mxCell id="i7z96Pq1NJeUj6vUrh7O-55" style="edgeStyle=orthogonalEdgeStyle;rounded=0;orthogonalLoop=1;jettySize=auto;html=1;fillColor=#dae8fc;strokeColor=#6c8ebf;strokeWidth=3;curved=1;" edge="1" parent="1" source="i7z96Pq1NJeUj6vUrh7O-18" target="i7z96Pq1NJeUj6vUrh7O-50">
          <mxGeometry relative="1" as="geometry" />
        </mxCell>
        <mxCell id="i7z96Pq1NJeUj6vUrh7O-56" style="edgeStyle=orthogonalEdgeStyle;rounded=0;orthogonalLoop=1;jettySize=auto;html=1;entryX=0;entryY=0.5;entryDx=0;entryDy=0;entryPerimeter=0;strokeWidth=3;fillColor=#d5e8d4;strokeColor=#82b366;curved=1;" edge="1" parent="1" source="i7z96Pq1NJeUj6vUrh7O-19" target="i7z96Pq1NJeUj6vUrh7O-50">
          <mxGeometry relative="1" as="geometry" />
        </mxCell>
      </root>
    </mxGraphModel>
  </diagram>
</mxfile>
